0
SECTION
2
HEADER
9
$INSUNITS
70
1
9
$ACADVER
1
AC1014
9
$HANDSEED
5
FFFF
0
ENDSEC
0
SECTION
2
TABLES
0
TABLE
2
VPORT
5
8
100
AcDbSymbolTable
0
ENDTAB
0
TABLE
2
LTYPE
5
5
100
AcDbSymbolTable
0
LTYPE
5
14
100
AcDbSymbolTableRecord
100
AcDbLinetypeTableRecord
2
BYBLOCK
70
0
0
LTYPE
5
15
100
AcDbSymbolTableRecord
100
AcDbLinetypeTableRecord
2
BYLAYER
70
0
0
ENDTAB
0
TABLE
2
LAYER
5
2
100
AcDbSymbolTable
70
2
0
LAYER
5
50
100
AcDbSymbolTableRecord
100
AcDbLayerTableRecord
2
0
70
0
6
CONTINUOUS
0
ENDTAB
0
TABLE
2
STYLE
5
3
100
AcDbSymbolTable
70
1
0
STYLE
5
11
100
AcDbSymbolTableRecord
100
AcDbTextStyleTableRecord
2
STANDARD
70
0
0
ENDTAB
0
TABLE
2
VIEW
5
6
100
AcDbSymbolTable
70
0
0
ENDTAB
0
TABLE
2
UCS
5
7
100
AcDbSymbolTable
70
0
0
ENDTAB
0
TABLE
2
APPID
5
9
100
AcDbSymbolTable
70
2
0
APPID
5
12
100
AcDbSymbolTableRecord
100
AcDbRegAppTableRecord
2
ACAD
70
0
0
ENDTAB
0
TABLE
2
DIMSTYLE
5
A
100
AcDbSymbolTable
70
1
0
ENDTAB
0
TABLE
2
BLOCK_RECORD
5
1
100
AcDbSymbolTable
70
1
0
BLOCK_RECORD
5
1F
100
AcDbSymbolTableRecord
100
AcDbBlockTableRecord
2
*MODEL_SPACE
0
BLOCK_RECORD
5
1B
100
AcDbSymbolTableRecord
100
AcDbBlockTableRecord
2
*PAPER_SPACE
0
ENDTAB
0
ENDSEC
0
SECTION
2
BLOCKS
0
BLOCK
5
20
100
AcDbEntity
100
AcDbBlockBegin
2
*MODEL_SPACE
0
ENDBLK
5
21
100
AcDbEntity
100
AcDbBlockEnd
0
BLOCK
5
1C
100
AcDbEntity
100
AcDbBlockBegin
2
*PAPER_SPACE
0
ENDBLK
5
1D
100
AcDbEntity
100
AcDbBlockEnd
0
ENDSEC
0
SECTION
2
ENTITIES
0
LWPOLYLINE
5
100
100
AcDbEntity
8
0
100
AcDbPolyline
90
128
70
1
43
0.0
10
1.9622259243074753
20
4.1999999999357058
10
1.9621263536518099
20
4.0276852453793737
10
1.9227562920010879
20
4.0277079950438726
10
1.9227039677500277
20
3.9371568139415105
10
1.9620740294007799
20
3.9371340642770116
10
1.9620078961340335
20
3.8226853088205601
10
2.0879921481025376
20
3.8226125098625641
10
2.0880582813692836
20
3.9370612653190165
10
2.1274283430200045
20
3.9370385156545171
10
2.12748067146005
20
4.0275896967568796
10
2.0881106098093278
20
4.0276124464213785
10
2.0882102184049112
20
4.2000000000000002
10
2.6500000765943161
20
4.2000000000000002
10
2.6500000413581972
20
3.4639428975175339
10
2.4750000413581974
20
3.4635049912415328
10
2.4749015252474891
20
3.5028748754353165
10
2.3843505252472097
20
3.5026482877141838
10
2.3844490413581969
20
3.4632784034087143
10
2.270001231059132
20
3.4629920181835456
10
2.2703164835407077
20
3.3370080181835475
10
2.3847642938397722
20
3.3372944034087162
10
2.3848628099504805
20
3.2979245192149325
10
2.4754138099507572
20
3.2981511069360661
10
2.4753152938397727
20
3.337520991129848
10
2.6500000353271229
20
3.3379581085276713
10
2.6499999999999999
20
2.5999999999999974
10
2.0861123911993866
20
2.5999999999999974
10
2.0869749286410846
20
2.774376826779219
10
2.126343881391783
20
2.7741820922126199
10
2.1267917828165936
20
2.8647330922129854
10
2.0874228300586863
20
2.8649278267796658
10
2.0879920000000047
20
2.9799953513804569
10
1.9620080000000049
20
2.9806185185697731
10
1.9614388300586869
20
2.8655509939689825
10
1.9220698773188856
20
2.8657457285356376
10
1.9216219759157369
20
2.7751947285356375
10
1.9609909286524903
20
2.7749999939689629
10
1.9601253087655368
20
2.5999999999999974
10
1.1500000000000001
20
2.5999999999999974
10
1.1500000000000001
20
2.016265501849654
10
0.97591537659059302
20
2.0175303687299819
10
0.9762014136314966
20
2.0568978716042454
10
0.88565041363149655
20
2.0575557985287336
10
0.88536437659059275
20
2.0181882956544714
10
0.77092540668967646
20
2.0190197881781158
10
0.7700100300990832
20
1.8930357881781159
10
0.8844489999999996
20
1.8922042956544711
10
0.88416296295909602
20
1.8528367927802083
10
0.97471396295909607
20
1.8521788658557197
10
0.97499999999999998
20
1.8915463687299809
10
1.1500000000000001
20
1.8902748508915743
10
1.1500000000000004
20
0.84999999999999742
10
1.9662383369520502
20
0.84999999999999742
10
1.9642827885017105
20
0.6749999999999976
10
1.9249189742064878
20
0.67543987340596523
10
1.9239020890123164
20
0.58443987340596315
10
1.9632659033075346
20
0.58399999999999508
10
1.9620079999999991
20
0.47143153933070114
10
2.0879920000000003
20
0.47002372323946057
10
2.0892499033075365
20
0.58259218390875256
10
2.1286137176027591
20
0.58215231050278438
10
2.1296306027969352
20
0.67315231050278912
10
2.090266788501713
20
0.67359218390875686
10
2.0922380686810547
20
0.84999999999999742
10
2.6499999999999999
20
0.84999999999999742
10
2.6499999999999999
20
0.48799200704782519
10
2.4749999999999996
20
0.4879920038021166
10
2.4749999992698037
20
0.52736220852652349
10
2.3844489969331906
20
0.52736220684708446
10
2.3844489976633851
20
0.48799200212267485
10
2.2699999976633891
20
0.4879919999999997
10
2.2699999999999996
20
0.36200799999999966
10
2.3844489999999996
20
0.36200800212267203
10
2.3844490007301951
20
0.32263779739826509
10
2.4750000007301947
20
0.3226377990777039
10
2.4749999999999996
20
0.3620080038021109
10
2.6499999999999999
20
0.36200800704781555
10
2.6499999999999999
20
9.7359420532214569e-16
10
1.3879920000000001
20
1.5735444443506155e-15
10
1.3879920000000001
20
0.17500000000000002
10
1.4273622047244097
20
0.17499999999999999
10
1.4273622047244097
20
0.26599999999999696
10
1.3879919999999999
20
0.26599999999999702
10
1.3879919999999999
20
0.38000000000005874
10
1.262008
20
0.38000000000005868
10
1.2620079999999998
20
0.26600000000000024
10
1.2226377952755905
20
0.26600000000000118
10
1.2226377952755905
20
0.17500000000000165
10
1.2620079999999998
20
0.17500000000000152
10
1.2620079999999998
20
8.6547344350872069e-16
10
0
20
0
10
0
20
0.28700800000000004
10
0.17499999999999996
20
0.28700800000000004
10
0.17499999999999996
20
0.24763779527558921
10
0.26555099999999998
20
0.24763779527558782
10
0.26555099999999998
20
0.28700800000000004
10
0.37999999999999978
20
0.28700800000000004
10
0.37999999999999984
20
0.41299200000000003
10
0.26555099999999998
20
0.41299200000000003
10
0.26555099999999998
20
0.4523622047244108
10
0.17499999999999996
20
0.4523622047244108
10
0.17499999999999996
20
0.41299200000000003
10
-3.0159601850053466e-16
20
0.41299199999999914
10
0
20
3.5120079999999994
10
0.17499999999999996
20
3.5120079999999994
10
0.17499999999999996
20
3.47263779527559
10
0.26555099999999998
20
3.4726377952755887
10
0.26555099999999998
20
3.5120079999999994
10
0.38000000000000017
20
3.5120079999999994
10
0.38000000000000039
20
3.6379919999999992
10
0.26555099999999998
20
3.6379919999999992
10
0.26555099999999998
20
3.6773622047244108
10
0.17499999999999996
20
3.6773622047244086
10
0.17499999999999996
20
3.6379919999999992
10
2.7755575615628824e-17
20
3.6379919999999988
10
0
20
4.1999999999999993
10
0.56200787401574792
20
4.1999999999999993
10
0.56200787401574792
20
4.0249999999999995
10
0.5226377952755894
20
4.0249999999999995
10
0.52263779527558829
20
3.934448818897637
10
0.56200787401574792
20
3.934448818897637
10
0.56200787401574792
20
3.8199999999999998
10
0.68799212598425197
20
3.8199999999999998
10
0.68799212598425163
20
3.934448818897637
10
0.72736220472440982
20
3.934448818897637
10
0.72736220472440982
20
4.0249999999999995
10
0.68799212598425119
20
4.0249999999999995
10
0.68799212598425086
20
4.1999999999999993
0
LWPOLYLINE
5
101
100
AcDbEntity
8
0
100
AcDbPolyline
90
4
70
1
43
0.0
10
0.8125
20
0.87499999999999978
10
0.81249999999999944
20
1.5000000000000002
42
0.99999999999999989
10
0.43749999999999972
20
1.5000000000000002
10
0.4375
20
0.87499999999999978
42
0.99999999999999989
0
LWPOLYLINE
5
102
100
AcDbEntity
8
0
100
AcDbPolyline
90
4
70
1
43
0.0
10
0.81250000000002642
20
2.437500000000028
10
0.8125000000000262
20
2.6874999999999716
42
0.99999999999999989
10
0.43749999999997097
20
2.6874999999999716
10
0.43749999999997108
20
2.437500000000028
42
0.99999999999999989
0
LWPOLYLINE
5
103
100
AcDbEntity
8
0
100
AcDbPolyline
90
128
70
1
43
0.0
10
1.9621263536518099
20
4.0276852453793737
10
1.9622259243074753
20
4.1999999999357058
10
0.68799212598425086
20
4.1999999999999993
10
0.68799212598425119
20
4.0249999999999995
10
0.72736220472440982
20
4.0249999999999995
10
0.72736220472440982
20
3.934448818897637
10
0.68799212598425163
20
3.934448818897637
10
0.68799212598425197
20
3.8199999999999998
10
0.56200787401574792
20
3.8199999999999998
10
0.56200787401574792
20
3.934448818897637
10
0.52263779527558829
20
3.934448818897637
10
0.5226377952755894
20
4.0249999999999995
10
0.56200787401574792
20
4.0249999999999995
10
0.56200787401574792
20
4.1999999999999993
10
0
20
4.1999999999999993
10
0
20
3.6379919999999988
10
0.17499999999999996
20
3.6379919999999992
10
0.17499999999999996
20
3.6773622047244086
10
0.26555099999999998
20
3.6773622047244108
10
0.26555099999999998
20
3.6379919999999992
10
0.38000000000000039
20
3.6379919999999992
10
0.38000000000000017
20
3.5120079999999994
10
0.26555099999999998
20
3.5120079999999994
10
0.26555099999999998
20
3.4726377952755887
10
0.17499999999999996
20
3.47263779527559
10
0.17499999999999996
20
3.5120079999999994
10
0
20
3.5120079999999994
10
0
20
0.4129919999999993
10
0.17499999999999996
20
0.41299200000000003
10
0.17499999999999996
20
0.4523622047244108
10
0.26555099999999998
20
0.4523622047244108
10
0.26555099999999998
20
0.41299200000000003
10
0.37999999999999984
20
0.41299200000000003
10
0.37999999999999978
20
0.28700800000000004
10
0.26555099999999998
20
0.28700800000000004
10
0.26555099999999998
20
0.24763779527558782
10
0.17499999999999996
20
0.24763779527558921
10
0.17499999999999996
20
0.28700800000000004
10
0
20
0.28700800000000004
10
0
20
0
10
1.2620079999999998
20
4.5895046293559618e-16
10
1.2620079999999998
20
0.17500000000000152
10
1.2226377952755905
20
0.17500000000000165
10
1.2226377952755905
20
0.26600000000000118
10
1.2620079999999998
20
0.26600000000000024
10
1.262008
20
0.38000000000005868
10
1.3879919999999999
20
0.38000000000005874
10
1.3879919999999999
20
0.26599999999999702
10
1.4273622047244097
20
0.26599999999999696
10
1.4273622047244097
20
0.17499999999999999
10
1.3879920000000001
20
0.17500000000000002
10
1.3879920000000001
20
1.5815460789574319e-15
10
2.6499999999999999
20
9.616104937698205e-16
10
2.6499999999999999
20
0.36200800704781555
10
2.4749999999999996
20
0.3620080038021109
10
2.4750000007301947
20
0.3226377990777039
10
2.3844490007301951
20
0.32263779739826509
10
2.3844489999999996
20
0.36200800212267203
10
2.2699999999999996
20
0.36200799999999966
10
2.2699999976633891
20
0.4879919999999997
10
2.3844489976633851
20
0.48799200212267485
10
2.3844489969331906
20
0.52736220684708446
10
2.4749999992698037
20
0.52736220852652349
10
2.4749999999999996
20
0.4879920038021166
10
2.6499999999999999
20
0.48799200704782519
10
2.6499999999999999
20
0.84999999999999742
10
2.0922380686810547
20
0.84999999999999742
10
2.090266788501713
20
0.67359218390875686
10
2.1296306027969352
20
0.67315231050278912
10
2.1286137176027591
20
0.58215231050278438
10
2.0892499033075365
20
0.58259218390875256
10
2.0879920000000003
20
0.47002372323946057
10
1.9620079999999991
20
0.47143153933070114
10
1.9632659033075346
20
0.58399999999999508
10
1.9239020890123164
20
0.58443987340596315
10
1.9249189742064878
20
0.67543987340596523
10
1.9642827885017105
20
0.6749999999999976
10
1.9662383369520502
20
0.84999999999999742
10
1.1500000000000004
20
0.84999999999999742
10
1.1500000000000001
20
1.8902748508915743
10
0.97499999999999998
20
1.8915463687299809
10
0.97471396295909607
20
1.8521788658557197
10
0.88416296295909602
20
1.8528367927802083
10
0.8844489999999996
20
1.8922042956544711
10
0.7700100300990832
20
1.8930357881781159
10
0.77092540668967646
20
2.0190197881781158
10
0.88536437659059275
20
2.0181882956544714
10
0.88565041363149655
20
2.0575557985287336
10
0.9762014136314966
20
2.0568978716042454
10
0.97591537659059302
20
2.0175303687299819
10
1.1500000000000001
20
2.016265501849654
10
1.1500000000000001
20
2.5999999999999974
10
1.9601253087655368
20
2.5999999999999974
10
1.9609909286524903
20
2.7749999939689629
10
1.9216219759157369
20
2.7751947285356375
10
1.9220698773188856
20
2.8657457285356376
10
1.9614388300586869
20
2.8655509939689825
10
1.9620080000000049
20
2.9806185185697731
10
2.0879920000000047
20
2.9799953513804569
10
2.0874228300586863
20
2.8649278267796658
10
2.1267917828165936
20
2.8647330922129854
10
2.126343881391783
20
2.7741820922126199
10
2.0869749286410846
20
2.774376826779219
10
2.0861123911993866
20
2.5999999999999974
10
2.6499999999999999
20
2.5999999999999974
10
2.6500000353271229
20
3.3379581085276713
10
2.4753152938397727
20
3.337520991129848
10
2.4754138099507572
20
3.2981511069360661
10
2.3848628099504805
20
3.2979245192149325
10
2.3847642938397722
20
3.3372944034087162
10
2.2703164835407077
20
3.3370080181835475
10
2.270001231059132
20
3.4629920181835456
10
2.3844490413581969
20
3.4632784034087143
10
2.3843505252472097
20
3.5026482877141838
10
2.4749015252474891
20
3.5028748754353165
10
2.4750000413581974
20
3.4635049912415328
10
2.6500000413581972
20
3.4639428975175339
10
2.6500000765943161
20
4.2000000000000002
10
2.0882102184049112
20
4.2000000000000002
10
2.0881106098093278
20
4.0276124464213785
10
2.12748067146005
20
4.0275896967568796
10
2.1274283430200045
20
3.9370385156545171
10
2.0880582813692836
20
3.9370612653190165
10
2.0879921481025376
20
3.8226125098625641
10
1.9620078961340335
20
3.8226853088205601
10
1.9620740294007799
20
3.9371340642770116
10
1.9227039677500277
20
3.9371568139415105
10
1.9227562920010879
20
4.0277079950438726
0
LWPOLYLINE
5
104
100
AcDbEntity
8
0
100
AcDbPolyline
90
4
70
1
43
0.0
10
0.8125000000000262
20
2.6874999999999716
10
0.81250000000002642
20
2.437500000000028
42
-0.99999999999999989
10
0.43749999999997108
20
2.437500000000028
10
0.43749999999997113
20
2.6874999999999716
42
-0.99999999999999989
0
LWPOLYLINE
5
105
100
AcDbEntity
8
0
100
AcDbPolyline
90
4
70
1
43
0.0
10
0.81249999999999944
20
1.5000000000000002
10
0.8125
20
0.87499999999999978
42
-0.99999999999999989
10
0.4375
20
0.87499999999999978
10
0.43749999999999967
20
1.5000000000000002
42
-0.99999999999999989
0
ENDSEC
0
SECTION
2
OBJECTS
0
DICTIONARY
5
C
100
AcDbDictionary
3
ACAD_GROUP
350
D
3
ACAD_MLINESTYLE
350
17
0
DICTIONARY
5
D
100
AcDbDictionary
0
DICTIONARY
5
1A
330
C
100
AcDbDictionary
0
DICTIONARY
5
17
100
AcDbDictionary
0
ENDSEC
0
EOF
